<svg id="Слой_1" data-name="Слой 1" xmlns="http://www.w3.org/2000/svg" viewBox="0 0 45.61 31.04"><title>logo</title><path d="M663.48,369.62v5.94H662.3v-5.94h-2.21v-1.06h5.61v1.06Zm8.12,5.94v-2.9h-3.71v2.9H666.7v-7h1.19v3h3.71v-3h1.18v7Zm4.19-5.94v1.89h3.42v1.06h-3.42v1.93h3.94v1.06h-5.12v-7h5v1.06ZM661.91,386l-.67,1.59H660l3.09-7h1.21l3.06,7h-1.26l-.67-1.59Zm1.76-4.16-1.32,3.11H665Zm7.79,3.63h-2v2.11H668.3v-7h2.84a3.13,3.13,0,0,1,2.08.63A2.19,2.19,0,0,1,674,383a2.57,2.57,0,0,1-.38,1.42,2.23,2.23,0,0,1-1.07.85l1.57,2.34h-1.34Zm-.32-1.05a2,2,0,0,0,1.26-.36,1.29,1.29,0,0,0,.44-1,1.2,1.2,0,0,0-.44-1,2,2,0,0,0-1.26-.35h-1.66v2.78Zm7-2.78v5.95H676.9v-5.95h-2.21v-1.06h5.61v1.06Zm-10.86,17.94v-5.23l-2.21,4.5h-.77l-2.21-4.5v5.23h-1.11v-7h1.4l2.31,4.65,2.3-4.65h1.39v7Zm8.89-2.9a3.18,3.18,0,0,1-.37,1.58,2.46,2.46,0,0,1-1,1,3.55,3.55,0,0,1-1.62.35,3.59,3.59,0,0,1-1.63-.35,2.46,2.46,0,0,1-1.05-1,3.18,3.18,0,0,1-.37-1.58v-4.1h1.18v4.1a1.87,1.87,0,0,0,.5,1.39,1.9,1.9,0,0,0,1.38.5,1.79,1.79,0,0,0,1.35-.5,1.89,1.89,0,0,0,.5-1.39v-4.1h1.18Zm4-4.15a4.54,4.54,0,0,1,1.32.2,4.34,4.34,0,0,1,1.13.52l-.48,1a5,5,0,0,0-1.09-.49,3.32,3.32,0,0,0-1-.16,1.52,1.52,0,0,0-.83.19.61.61,0,0,0-.3.54.73.73,0,0,0,.19.52,1.64,1.64,0,0,0,.5.34,7.66,7.66,0,0,0,.85.28,8.5,8.5,0,0,1,1.15.42,1.94,1.94,0,0,1,.76.61,1.66,1.66,0,0,1,.32,1.05,1.77,1.77,0,0,1-.34,1.07,2.12,2.12,0,0,1-.94.71,3.45,3.45,0,0,1-1.37.25,4.15,4.15,0,0,1-1.55-.3,4.37,4.37,0,0,1-1.31-.81l.52-1a3.94,3.94,0,0,0,1.16.76,3,3,0,0,0,1.2.26,1.76,1.76,0,0,0,1-.22.71.71,0,0,0,.34-.63.76.76,0,0,0-.2-.53,1.5,1.5,0,0,0-.51-.33l-.84-.28a9.26,9.26,0,0,1-1.16-.41,2.11,2.11,0,0,1-.75-.58,1.63,1.63,0,0,1-.32-1,1.76,1.76,0,0,1,.32-1,2.15,2.15,0,0,1,.9-.68A3.43,3.43,0,0,1,680.1,392.5Zm5.1,1.11v1.89h3.42v1.06H685.2v1.93h3.94v1.06H684v-7h5v1.06Zm11.33,3a3.18,3.18,0,0,1-.37,1.58,2.46,2.46,0,0,1-1,1,3.55,3.55,0,0,1-1.62.35,3.59,3.59,0,0,1-1.63-.35,2.46,2.46,0,0,1-1.05-1,3.18,3.18,0,0,1-.37-1.58v-4.1h1.18v4.1a1.87,1.87,0,0,0,.5,1.39,1.9,1.9,0,0,0,1.38.5,1.79,1.79,0,0,0,1.35-.5,1.89,1.89,0,0,0,.5-1.39v-4.1h1.18Zm8,2.9v-5.23l-2.22,4.5h-.77l-2.2-4.5v5.23h-1.12v-7h1.4l2.31,4.65,2.3-4.65h1.4v7Z" transform="translate(-660.01 -368.56)"/></svg>